{"title":"2 States (2014) -700MB -1CDRip -DVDScr -XviD{VikkyMaxx}[SilverRG","uid":9992751,"size":739153180,"categoryP":"video","categoryS":"movies","magnet":"?xt=urn:btih:7cfd760bccb4f5a0c84b5c609499385bea21a777&amp;dn=2+States+%282014%29+-700MB+-1CDRip+-DVDScr+-XviD%7BVikkyMaxx%7D%5BSilverRG&amp;tr=udp%3A%2F%2Ftracker.openbittorrent.com%3A80&amp;tr=udp%3A%2F%2Fopen.demonii.com%3A1337&amp;tr=udp%3A%2F%2Ftracker.coppersurfer.tk%3A6969&amp;tr=udp%3A%2F%2Fexodus.desync.com%3A6969","seeders":1,"leechers":2,"uploader":"shailendramaxx","files":26,"time":1397872645,"description":"VikkyMaxx SilverRG Presents\n\n\n\nGeneral:-\n \nComplete name : 2 States(2014)-700MB-1CDRip-DVDScr-XviD{VikkyMaxx}[SilverRG]\nFormat : AVI \nFormat/Info : Audio Video Interleave \nFile size : 697 MiB \nDuration : 2h 28mn \nOverall bit rate : 656 Kbps \n\nVideo:-\n \nID : 0 \nFormat : MPEG-4 Visual \nFormat profile : Advanced Simple@L5 \nFormat settings, BVOP : 2 \nFormat settings, QPel : No \nFormat settings, GMC : No warppoints \nFormat settings, Matrix : Default (H.263) \nCodec ID : XVID \nCodec ID/Hint : XviD \nDuration : 2h 28mn \nBit rate : 549 Kbps \nWidth : 640 pixels \nHeight : 272 pixels \nDisplay aspect ratio : 2.35:1 \nFrame rate : 29.970 fps \nColor space : YUV \nChroma subsampling : 4:2:0 \nBit depth : 8 bits \nScan type : Progressive \nCompression mode : Lossy \nBits/(Pixel*Frame) : 0.105 \nStream size : 583 MiB (84%) \nWriting library : XviD 1.2.1 (UTC 2008-12-04) \n\nAudio:-\n\nID : 1 \nFormat : MPEG Audio \nFormat version : Version 1 \nFormat profile : Layer 3 \nMode : Joint stereo \nMode extension : MS Stereo \nCodec ID : 55 \nCodec ID/Hint : MP3 \nDuration : 2h 28mn \nSource duration : 2h 28mn \nBit rate mode : Constant \nBit rate : 96.0 Kbps \nChannel(s) : 2 channels \nSampling rate : 32.0 KHz \nCompression mode : Lossy \nStream size : 102 MiB (15%) \nAlignment : Aligned on interleaves \nInterleave, duration : 36 ms (1.08 video frame) \nWriting library : LAME3.99r \nLanguage:  HINDI\n\n\nSCREENS:-\n &lt;a href=&quot;\nhttp://i.imgur.com/AiY0cqH.jpg&quot; rel=&quot;nofollow&quot; target=&quot;_NEW&quot;&gt;\nhttp://i.imgur.com/AiY0cqH.jpg&lt;/a&gt;\n &lt;a href=&quot;\nhttp://i.imgur.com/5LI94Vw.jpg&quot; rel=&quot;nofollow&quot; target=&quot;_NEW&quot;&gt;\nhttp://i.imgur.com/5LI94Vw.jpg&lt;/a&gt;\n &lt;a href=&quot;\nhttp://i.imgur.com/bpb3yMT.jpg&quot; rel=&quot;nofollow&quot; target=&quot;_NEW&quot;&gt;\nhttp://i.imgur.com/bpb3yMT.jpg&lt;/a&gt;\n &lt;a href=&quot;\nhttp://i.imgur.com/H0Trkt2.jpg&quot; rel=&quot;nofollow&quot; target=&quot;_NEW&quot;&gt;\nhttp://i.imgur.com/H0Trkt2.jpg&lt;/a&gt;\n &lt;a href=&quot;\nhttp://i.imgur.com/M1L6KuX.jpg&quot; rel=&quot;nofollow&quot; target=&quot;_NEW&quot;&gt;\nhttp://i.imgur.com/M1L6KuX.jpg&lt;/a&gt;\n &lt;a href=&quot;\nhttp://i.imgur.com/sUPUWGI.jpg&quot; rel=&quot;nofollow&quot; target=&quot;_NEW&quot;&gt;\nhttp://i.imgur.com/sUPUWGI.jpg&lt;/a&gt;\n &lt;a href=&quot;\nhttp://i.imgur.com/Japf85G.jpg&quot; rel=&quot;nofollow&quot; target=&quot;_NEW&quot;&gt;\nhttp://i.imgur.com/Japf85G.jpg&lt;/a&gt;\n &lt;a href=&quot;\nhttp://i.imgur.com/9DvxMuB.jpg&quot; rel=&quot;nofollow&quot; target=&quot;_NEW&quot;&gt;\nhttp://i.imgur.com/9DvxMuB.jpg&lt;/a&gt;\n &lt;a href=&quot;\nhttp://i.imgur.com/Ee7mqJr.jpg&quot; rel=&quot;nofollow&quot; target=&quot;_NEW&quot;&gt;\nhttp://i.imgur.com/Ee7mqJr.jpg&lt;/a&gt;\n &lt;a href=&quot;\nhttp://i.imgur.com/dbhiV8a.jpg&quot; rel=&quot;nofollow&quot; target=&quot;_NEW&quot;&gt;\nhttp://i.imgur.com/dbhiV8a.jpg&lt;/a&gt;\n &lt;a href=&quot;\nhttp://i.imgur.com/KlXMtjo.jpg&quot; rel=&quot;nofollow&quot; target=&quot;_NEW&quot;&gt;\nhttp://i.imgur.com/KlXMtjo.jpg&lt;/a&gt;\n &lt;a href=&quot;\nhttp://i.imgur.com/Q2X0j6g.jpg&quot; rel=&quot;nofollow&quot; target=&quot;_NEW&quot;&gt;\nhttp://i.imgur.com/Q2X0j6g.jpg&lt;/a&gt;\n\n\nSAMPLE AND SCREENSHOTS INCLUDED\n\n    \n             \n             ********** PLEASE SEED AS LONG AS YOU CAN AFTER DOWNLOAD **********\n       \n                    ***** THANK YOU REGARDS - VIKKYMAXX (SilverRG) *****\n","torrent":{"xt":"urn:btih:7cfd760bccb4f5a0c84b5c609499385bea21a777","amp;dn":"2+States+%282014%29+-700MB+-1CDRip+-DVDScr+-XviD%7BVikkyMaxx%7D%5BSilverRG","amp;tr":["udp%3A%2F%2Ftracker.openbittorrent.com%3A80","udp%3A%2F%2Fopen.demonii.com%3A1337","udp%3A%2F%2Ftracker.coppersurfer.tk%3A6969","udp%3A%2F%2Fexodus.desync.com%3A6969"],"infoHash":"7cfd760bccb4f5a0c84b5c609499385bea21a777","infoHashBuffer":{"type":"Buffer","data":[124,253,118,11,204,180,245,160,200,75,92,96,148,153,56,91,234,33,167,119]},"announce":[],"urlList":[]}}